<svg version="1.1" id="Layer_1" xmlns="http://www.w3.org/2000/svg" xmlns:xlink="http://www.w3.org/1999/xlink" x="0px" y="0px"
	 width="100%" viewBox="0 0 128 128" enable-background="new 0 0 128 128" xml:space="preserve">
<path fill="#13227A" opacity="1.000000" stroke="none" 
	d="
M129.000000,65.000000 
	C129.000000,68.692909 129.000000,72.385818 128.642578,76.482918 
	C117.877640,81.200226 107.470123,85.513344 94.761963,90.779907 
	C97.262268,92.272476 99.464867,93.061523 100.947479,94.561981 
	C107.940300,101.638969 114.835213,108.821442 121.488495,116.215134 
	C122.423355,117.254036 122.575058,120.314735 121.744537,121.267998 
	C120.850014,122.294731 118.268585,122.415146 116.617683,122.050377 
	C115.163353,121.729057 113.857094,120.315735 112.693596,119.172745 
	C107.592705,114.161842 102.579575,109.061729 97.509598,104.019142 
	C94.982277,101.505486 92.401062,99.046013 89.842438,96.560280 
	C85.410439,107.755417 81.205215,118.377708 77.000000,129.000000 
	C73.307091,129.000000 69.614182,129.000000 65.520844,128.645599 
	C59.795418,120.311890 54.504940,112.309105 49.111382,104.376419 
	C48.214912,103.057915 47.068672,101.509186 45.691643,100.996208 
	C42.247261,99.713081 38.657467,98.597099 35.030632,98.068390 
	C23.725990,96.420433 11.610114,101.602753 1.000000,94.000000 
	C1.000000,90.638710 1.000000,87.277428 1.350948,83.496231 
	C7.709565,75.211563 14.023072,67.552094 19.528435,59.350174 
	C21.071367,57.051506 21.111481,52.916397 20.324503,50.038330 
	C18.057690,41.748344 15.135811,33.627331 12.231331,25.525955 
	C10.680117,21.199202 10.929265,17.512640 14.317500,14.168766 
	C17.723766,10.807096 21.433701,10.770557 25.715427,12.312953 
	C33.811707,15.229453 41.912056,18.254292 50.229927,20.373840 
	C53.317188,21.160532 57.480309,20.376358 60.340614,18.817909 
	C65.375656,16.074553 69.879333,12.303625 74.425491,8.733734 
	C77.445663,6.362128 80.152763,3.591835 83.000000,1.000000 
	C86.361290,1.000000 89.722572,1.000000 93.489502,1.362569 
	C97.474335,5.428870 98.336548,9.879794 98.069763,14.906011 
	C97.762764,20.689850 98.455185,26.547701 97.886581,32.291546 
	C97.122154,40.013496 99.460976,45.625122 106.193359,49.778893 
	C113.966850,54.574993 121.412178,59.902973 129.000000,65.000000 
M44.513962,61.855556 
	C47.692455,58.369778 47.329231,54.832516 45.069103,50.951447 
	C43.496719,48.251354 42.310936,45.284996 41.277111,42.324226 
	C40.287636,39.490459 38.902328,37.156155 35.626865,38.430386 
	C32.156181,39.780552 32.933220,42.555119 34.509804,45.020447 
	C39.770336,53.246414 39.349537,60.518787 31.616367,67.193756 
	C30.509668,68.149017 31.215570,71.204231 31.082598,73.287582 
	C33.066086,72.662605 35.581123,72.588928 36.921322,71.296753 
	C39.628834,68.686256 41.698383,65.414085 44.513962,61.855556 
z"/>
<path fill="#000000" opacity="1.000000" stroke="none" 
	d="
M82.531342,1.000000 
	C80.152763,3.591835 77.445663,6.362128 74.425491,8.733734 
	C69.879333,12.303625 65.375656,16.074553 60.340614,18.817909 
	C57.480309,20.376358 53.317188,21.160532 50.229927,20.373840 
	C41.912056,18.254292 33.811707,15.229453 25.715427,12.312953 
	C21.433701,10.770557 17.723766,10.807096 14.317500,14.168766 
	C10.929265,17.512640 10.680117,21.199202 12.231331,25.525955 
	C15.135811,33.627331 18.057690,41.748344 20.324503,50.038330 
	C21.111481,52.916397 21.071367,57.051506 19.528435,59.350174 
	C14.023072,67.552094 7.709565,75.211563 1.350948,83.038162 
	C1.000000,55.739769 1.000000,28.479540 1.000000,1.000000 
	C28.020498,1.000000 55.041592,1.000000 82.531342,1.000000 
z"/>
<path fill="#000000" opacity="1.000000" stroke="none" 
	d="
M1.000000,94.468658 
	C11.610114,101.602753 23.725990,96.420433 35.030632,98.068390 
	C38.657467,98.597099 42.247261,99.713081 45.691643,100.996208 
	C47.068672,101.509186 48.214912,103.057915 49.111382,104.376419 
	C54.504940,112.309105 59.795418,120.311890 65.060204,128.645599 
	C43.761379,129.000000 22.522757,129.000000 1.000000,129.000000 
	C1.000000,117.647354 1.000000,106.292336 1.000000,94.468658 
z"/>
<path fill="#000000" opacity="1.000000" stroke="none" 
	d="
M129.000000,64.531342 
	C121.412178,59.902973 113.966850,54.574993 106.193359,49.778893 
	C99.460976,45.625122 97.122154,40.013496 97.886581,32.291546 
	C98.455185,26.547701 97.762764,20.689850 98.069763,14.906011 
	C98.336548,9.879794 97.474335,5.428870 93.947571,1.362569 
	C105.614868,1.000000 117.229736,1.000000 129.000000,1.000000 
	C129.000000,22.020666 129.000000,43.041676 129.000000,64.531342 
z"/>
<path fill="#000000" opacity="1.000000" stroke="none" 
	d="
M77.468658,129.000000 
	C81.205215,118.377708 85.410439,107.755417 89.842438,96.560280 
	C92.401062,99.046013 94.982277,101.505486 97.509598,104.019142 
	C102.579575,109.061729 107.592705,114.161842 112.693596,119.172745 
	C113.857094,120.315735 115.163353,121.729057 116.617683,122.050377 
	C118.268585,122.415146 120.850014,122.294731 121.744537,121.267998 
	C122.575058,120.314735 122.423355,117.254036 121.488495,116.215134 
	C114.835213,108.821442 107.940300,101.638969 100.947479,94.561981 
	C99.464867,93.061523 97.262268,92.272476 94.761963,90.779907 
	C107.470123,85.513344 117.877640,81.200226 128.642578,76.943558 
	C129.000000,94.260094 129.000000,111.520195 129.000000,129.000000 
	C111.979736,129.000000 94.958527,129.000000 77.468658,129.000000 
z"/>
<path fill="#000000" opacity="1.000000" stroke="none" 
	d="
M44.272503,62.135181 
	C41.698383,65.414085 39.628834,68.686256 36.921322,71.296753 
	C35.581123,72.588928 33.066086,72.662605 31.082596,73.287582 
	C31.215570,71.204231 30.509668,68.149017 31.616367,67.193756 
	C39.349537,60.518787 39.770336,53.246414 34.509804,45.020447 
	C32.933220,42.555119 32.156181,39.780552 35.626865,38.430386 
	C38.902328,37.156155 40.287636,39.490459 41.277111,42.324226 
	C42.310936,45.284996 43.496719,48.251354 45.069103,50.951447 
	C47.329231,54.832516 47.692455,58.369778 44.272503,62.135181 
z"/>
</svg>